<?xml version="1.0" encoding="UTF-8" standalone="no"?>
<!-- Uploaded to: SVG Repo, www.svgrepo.com, Generator: SVG Repo Mixer Tools -->

<svg
   width="800px"
   height="800px"
   viewBox="0 0 50.8 50.8"
   version="1.1"
   id="svg6538"
   sodipodi:docname="drm.svg"
   inkscape:version="1.2.2 (b0a8486541, 2022-12-01)"
   xmlns:inkscape="http://www.inkscape.org/namespaces/inkscape"
   xmlns:sodipodi="http://sodipodi.sourceforge.net/DTD/sodipodi-0.dtd"
   xmlns="http://www.w3.org/2000/svg"
   xmlns:svg="http://www.w3.org/2000/svg">
  <defs
     id="defs6542" />
  <sodipodi:namedview
     id="namedview6540"
     pagecolor="#ffffff"
     bordercolor="#000000"
     borderopacity="0.25"
     inkscape:showpageshadow="2"
     inkscape:pageopacity="0.0"
     inkscape:pagecheckerboard="0"
     inkscape:deskcolor="#d1d1d1"
     showgrid="false"
     inkscape:zoom="1.28375"
     inkscape:cx="399.61052"
     inkscape:cy="399.61052"
     inkscape:window-width="2560"
     inkscape:window-height="1408"
     inkscape:window-x="1080"
     inkscape:window-y="272"
     inkscape:window-maximized="1"
     inkscape:current-layer="svg6538" />
  <path
     d="M13.445 17.79h23.91c2.199 0 3.977 1.734 3.977 3.877v19.41c0 2.144-1.778 3.902-3.977 3.902h-23.91c-2.174 0-3.977-1.758-3.977-3.901v-19.41c0-2.144 1.803-3.878 3.977-3.878zm3.68 0v-3.901c0-4.456 3.705-8.068 8.275-8.068s8.275 3.612 8.275 8.068v3.9M25.4 27.496c2.198 0 4.002 1.734 4.002 3.877 0 2.144-1.804 3.902-4.002 3.902-2.198 0-3.977-1.758-3.977-3.902 0-2.143 1.779-3.877 3.977-3.877z"
     style="fill:none;stroke:#000000;stroke-width:3.81;stroke-linecap:butt;stroke-linejoin:miter;stroke-miterlimit:4;stroke-dasharray:none;stroke-opacity:1"
     id="path6536" />
</svg>
